<?xml version="1.0" standalone="no"?>
<!DOCTYPE svg PUBLIC "-//W3C//DTD SVG 20010904//EN"
 "http://www.w3.org/TR/2001/REC-SVG-20010904/DTD/svg10.dtd">
<svg version="1.0" xmlns="http://www.w3.org/2000/svg"
 width="512.000000pt" height="512.000000pt" viewBox="0 0 512.000000 512.000000"
 preserveAspectRatio="xMidYMid meet">
<metadata>
Created by potrace 1.11, written by Peter Selinger 2001-2013
</metadata>
<g transform="translate(0.000000,512.000000) scale(0.100000,-0.100000)"
fill="#000000" stroke="none">
<path d="M2735 5104 c-38 -9 -108 -34 -155 -56 -80 -39 -98 -54 -300 -258
-177 -177 -234 -228 -320 -284 -235 -154 -359 -334 -553 -801 -202 -486 -261
-586 -566 -950 -69 -82 -132 -157 -140 -165 -35 -36 -152 -201 -189 -267 -172
-305 -325 -765 -386 -1163 -3 -19 -8 -46 -10 -60 -8 -43 -26 -173 -31 -225 -3
-27 -7 -61 -10 -75 -2 -14 -7 -58 -10 -97 -3 -40 -7 -103 -10 -140 -3 -38 -8
-144 -10 -237 -3 -145 -1 -174 13 -198 9 -15 25 -31 37 -35 11 -3 412 -7 890
-8 954 -2 910 -4 936 57 9 22 9 42 0 86 -6 31 -14 77 -16 102 -6 56 -6 257 -1
290 3 14 7 43 11 65 7 47 20 102 41 167 15 46 16 47 52 42 39 -5 60 -8 157
-19 137 -15 327 -53 435 -87 36 -11 162 -67 280 -125 217 -106 382 -180 455
-203 22 -7 45 -16 51 -21 10 -8 215 -75 257 -83 12 -3 33 -8 47 -12 54 -14
245 -14 291 0 133 40 199 103 280 266 64 131 74 141 193 195 65 30 76 32 98
21 87 -45 381 -141 412 -134 9 2 -14 33 -66 88 -133 142 -344 411 -331 424 3
3 15 6 25 6 21 0 158 43 198 62 105 51 202 139 244 222 28 56 49 136 35 136
-4 0 -24 -11 -44 -24 -109 -74 -293 -121 -443 -113 -141 8 -245 33 -473 112
-57 20 -113 39 -124 42 -11 2 -29 9 -40 13 -62 27 -382 122 -455 136 -14 3
-32 7 -41 10 -46 13 -195 35 -274 40 l-90 5 -44 47 c-170 180 -289 512 -316
880 -5 78 -3 91 30 190 66 193 132 511 150 717 6 70 13 132 20 170 2 11 4 33
4 48 1 21 4 25 14 18 6 -6 39 -32 72 -59 133 -107 228 -254 296 -455 38 -112
37 -113 70 46 27 137 29 358 3 462 -8 33 5 32 52 -6 76 -60 167 -180 229 -302
l20 -38 7 43 c7 52 3 353 -7 423 -8 56 -36 161 -57 215 -44 112 -120 201 -206
240 l-52 24 37 12 c124 43 191 185 147 313 -44 130 -198 224 -434 266 -79 14
-315 13 -385 -1z m890 -3858 c22 -4 64 -11 94 -16 30 -6 56 -10 57 -10 1 0 6
-15 10 -32 4 -18 9 -40 11 -48 9 -39 4 -125 -12 -190 l-18 -72 -101 5 c-55 3
-135 15 -176 27 -110 31 -280 117 -409 209 -63 45 -112 81 -110 81 2 0 35 9
73 20 38 10 94 22 125 26 31 3 58 8 60 10 6 5 351 -4 396 -10z"/>
<path d="M4819 3726 c-2 -2 -20 -7 -39 -10 -204 -32 -400 -228 -476 -476 -21
-68 -18 -70 33 -23 95 88 224 132 410 137 171 6 244 38 299 133 34 56 36 131
7 172 -31 43 -98 71 -168 71 -34 0 -64 -2 -66 -4z"/>
<path d="M3555 2936 c-176 -44 -327 -167 -439 -359 -30 -50 -29 -71 1 -45 30
26 85 50 158 69 82 21 223 20 321 -4 113 -27 207 -9 279 54 112 99 86 231 -55
279 -62 21 -194 24 -265 6z"/>
<path d="M4598 2455 c-2 -1 -33 -5 -69 -8 -36 -3 -93 -13 -125 -23 -70 -20
-204 -81 -204 -92 0 -5 14 -8 32 -7 82 4 208 -39 301 -103 24 -17 68 -56 98
-88 97 -101 177 -140 279 -135 52 2 119 38 145 77 37 57 16 151 -49 215 -73
74 -216 144 -315 156 -20 2 -48 6 -63 7 -15 2 -28 3 -30 1z"/>
</g>
</svg>
