<?xml version="1.0" standalone="no"?>
<!DOCTYPE svg PUBLIC "-//W3C//DTD SVG 20010904//EN"
 "http://www.w3.org/TR/2001/REC-SVG-20010904/DTD/svg10.dtd">
<svg version="1.0" xmlns="http://www.w3.org/2000/svg"
 width="512.000000pt" height="512.000000pt" viewBox="0 0 512.000000 512.000000"
 preserveAspectRatio="xMidYMid meet">
<metadata>
Created by potrace 1.11, written by Peter Selinger 2001-2013
</metadata>
<g transform="translate(0.000000,512.000000) scale(0.100000,-0.100000)"
fill="#000000" stroke="none">
<path d="M2378 5115 c-2 -1 -39 -5 -82 -9 -44 -4 -82 -8 -85 -10 -3 -2 -31 -7
-61 -11 -188 -23 -481 -113 -683 -210 -672 -322 -1168 -908 -1371 -1620 -43
-151 -66 -278 -86 -465 -8 -81 -5 -463 5 -520 3 -19 13 -78 21 -130 106 -653
469 -1245 1005 -1642 358 -264 778 -430 1223 -482 144 -17 451 -17 592 0 760
90 1421 499 1848 1144 87 130 206 367 261 515 64 171 121 419 142 610 15 136
6 614 -12 645 -1 3 -6 28 -9 55 -14 103 -71 165 -153 165 -47 0 -88 -16 -115
-47 -10 -11 -40 -87 -68 -171 -27 -83 -71 -192 -97 -241 -178 -336 -468 -585
-817 -703 -49 -16 -99 -32 -110 -34 -138 -30 -191 -37 -331 -40 -418 -8 -778
138 -1073 437 -212 215 -343 477 -397 794 -14 81 -14 388 -1 450 4 17 9 39 10
50 16 85 70 254 109 335 121 256 298 456 540 614 110 72 224 121 432 186 65
20 79 29 113 72 32 40 26 126 -11 169 -36 42 -74 56 -207 74 -105 15 -520 31
-532 20z"/>
</g>
</svg>
