<?xml version="1.0" standalone="no"?>
<!DOCTYPE svg PUBLIC "-//W3C//DTD SVG 20010904//EN"
 "http://www.w3.org/TR/2001/REC-SVG-20010904/DTD/svg10.dtd">
<svg version="1.0" xmlns="http://www.w3.org/2000/svg"
 width="102.000000pt" height="102.000000pt" viewBox="0 0 102.000000 102.000000"
 preserveAspectRatio="xMidYMid meet">
<metadata>
Created by potrace 1.14, written by Peter Selinger 2001-2017
</metadata>
<g transform="translate(0.000000,102.000000) scale(0.100000,-0.100000)"
fill="#000000" stroke="none">
<path d="M420 990 c0 -27 -3 -30 -30 -30 -27 0 -30 -3 -30 -30 0 -27 -3 -30
-30 -30 -27 0 -30 -3 -30 -30 0 -27 3 -30 30 -30 27 0 30 -3 30 -30 l0 -30
-60 0 -60 0 0 -30 c0 -27 -3 -30 -30 -30 -27 0 -30 -3 -30 -30 0 -27 3 -30 30
-30 27 0 30 -3 30 -30 0 -27 -3 -30 -30 -30 -27 0 -30 -3 -30 -30 0 -27 -3
-30 -30 -30 -27 0 -30 -3 -30 -30 0 -27 -3 -30 -30 -30 l-30 0 0 -180 0 -180
30 0 c27 0 30 -3 30 -30 0 -27 3 -30 30 -30 27 0 30 -3 30 -30 l0 -30 330 0
330 0 0 30 c0 27 3 30 30 30 27 0 30 3 30 30 0 27 3 30 30 30 l30 0 0 180 0
180 -30 0 c-27 0 -30 3 -30 30 0 27 -3 30 -30 30 -27 0 -30 3 -30 30 0 27 -3
30 -30 30 -27 0 -30 3 -30 30 0 27 3 30 30 30 27 0 30 3 30 30 0 27 -3 30 -30
30 -27 0 -30 3 -30 30 l0 30 -60 0 -60 0 0 30 c0 27 3 30 30 30 27 0 30 3 30
30 0 27 -3 30 -30 30 -27 0 -30 3 -30 30 0 27 -3 30 -30 30 -27 0 -30 3 -30
30 l0 30 -90 0 -90 0 0 -30z m120 -60 c0 -27 3 -30 30 -30 27 0 30 -3 30 -30
l0 -30 -90 0 -90 0 0 30 c0 27 3 30 30 30 27 0 30 3 30 30 0 27 3 30 30 30 27
0 30 -3 30 -30z m0 -180 l0 -30 60 0 60 0 0 -30 0 -30 -150 0 -150 0 0 30 0
30 60 0 60 0 0 30 c0 27 3 30 30 30 27 0 30 -3 30 -30z m0 -180 c0 -27 3 -30
30 -30 27 0 30 -3 30 -30 l0 -30 -90 0 -90 0 0 -30 0 -30 180 0 180 0 0 30 c0
27 -3 30 -30 30 -27 0 -30 3 -30 30 0 27 -3 30 -30 30 -27 0 -30 3 -30 30 0
27 3 30 30 30 27 0 30 -3 30 -30 0 -27 3 -30 30 -30 27 0 30 -3 30 -30 0 -27
3 -30 30 -30 l30 0 0 -150 0 -150 -30 0 c-27 0 -30 -3 -30 -30 l0 -30 -60 0
-60 0 0 30 0 30 60 0 60 0 0 90 0 90 -30 0 -30 0 0 -60 0 -60 -210 0 -210 0 0
60 0 60 -30 0 -30 0 0 -90 0 -90 150 0 150 0 0 -30 0 -30 -150 0 -150 0 0 30
c0 27 -3 30 -30 30 l-30 0 0 150 0 150 30 0 c27 0 30 3 30 30 l0 30 120 0 120
0 0 30 c0 27 3 30 30 30 27 0 30 -3 30 -30z"/>
<path d="M240 450 l0 -30 60 0 60 0 0 30 0 30 -60 0 -60 0 0 -30z"/>
</g>
</svg>
